<?xml version="1.0" standalone="no"?>
<!DOCTYPE svg PUBLIC "-//W3C//DTD SVG 20010904//EN"
 "http://www.w3.org/TR/2001/REC-SVG-20010904/DTD/svg10.dtd">
<svg version="1.0" xmlns="http://www.w3.org/2000/svg"
 width="598.000000pt" height="398.000000pt" viewBox="0 0 598.000000 398.000000"
 preserveAspectRatio="xMidYMid meet">

<g transform="translate(0.000000,398.000000) scale(0.100000,-0.100000)"
fill="#000000" stroke="none">
<path d="M0 1990 l0 -1990 2990 0 2990 0 0 1990 0 1990 -2990 0 -2990 0 0
-1990z m3225 1225 c0 -6 -163 -11 -462 -13 -409 -2 -463 0 -463 13 0 13 54 15
463 13 299 -2 462 -7 462 -13z m-882 -109 c23 -18 22 -53 -2 -66 -13 -6 -140
-10 -345 -10 l-326 0 -32 -29 -32 -29 2 -207 c1 -126 -2 -214 -8 -226 -12 -21
-50 -25 -68 -7 -9 9 -12 73 -12 226 0 211 0 215 26 261 25 47 61 76 112 91 15
5 171 9 347 9 251 0 324 -2 338 -13z m2061 -10 c23 -12 50 -38 67 -65 l29 -45
0 -208 c0 -197 -1 -208 -20 -218 -14 -8 -26 -8 -40 0 -19 10 -20 21 -20 201 0
207 -6 235 -55 257 -19 9 -175 12 -596 12 -374 0 -577 4 -590 10 -10 6 -19 20
-19 32 0 48 -5 48 620 45 555 -2 587 -3 624 -21z m-2124 -203 c154 -70 244
-258 212 -445 -15 -86 -37 -137 -86 -201 -35 -46 -36 -48 -20 -72 18 -28 14
-107 -5 -113 -6 -2 -9 -7 -7 -11 3 -4 0 -8 -7 -9 -7 0 -29 -5 -49 -10 -27 -7
-44 -6 -62 3 -13 7 -27 11 -30 7 -3 -3 -6 2 -6 12 0 9 -4 14 -10 11 -5 -3 -10
-1 -10 5 0 6 -9 20 -19 31 -16 18 -29 20 -85 17 -36 -1 -66 0 -66 5 0 4 -6 7
-14 7 -23 0 -101 38 -120 59 -31 34 2 35 68 1 49 -24 80 -33 142 -37 76 -6 81
-7 126 -49 60 -56 90 -58 117 -6 10 19 9 30 -10 68 l-22 46 36 36 c20 20 48
62 64 92 26 52 28 63 28 180 0 117 -2 129 -28 180 -36 73 -85 123 -155 157
-49 24 -69 28 -143 28 -76 0 -92 -3 -145 -31 -32 -17 -58 -36 -56 -43 1 -7 -2
-10 -7 -7 -10 7 -60 -52 -83 -99 -42 -84 -48 -240 -13 -335 22 -60 23 -74 4
-77 -9 -2 -21 8 -28 24 -7 15 -18 37 -23 47 -16 30 -25 173 -16 239 20 144
102 247 239 297 72 27 222 23 289 -7z m466 -4 l29 -30 5 -230 5 -231 33 -29
c38 -34 94 -39 143 -13 52 27 59 60 59 294 l0 212 29 29 c24 23 38 29 74 29
37 0 51 -6 76 -31 l31 -31 0 -236 0 -237 -29 -60 c-28 -60 -99 -140 -133 -151
-10 -3 -18 -9 -18 -13 0 -3 -8 -8 -17 -9 -10 -1 -46 -7 -81 -14 -51 -10 -74
-9 -120 1 -31 7 -65 14 -74 14 -9 1 -14 5 -12 9 3 4 1 8 -4 8 -13 0 -117 78
-117 88 0 4 -8 18 -17 32 -36 55 -49 121 -46 240 3 107 4 115 23 115 19 0 20
-8 25 -135 6 -151 15 -182 76 -250 62 -69 103 -85 214 -85 86 1 100 3 143 29
26 15 63 49 82 74 57 73 65 119 65 346 0 183 -2 204 -20 234 -18 30 -50 44
-50 22 0 -5 -6 -7 -14 -4 -8 3 -21 -5 -30 -18 -13 -19 -16 -56 -16 -238 0
-155 -3 -219 -12 -228 -7 -7 -9 -12 -4 -12 4 0 -6 -11 -22 -25 -37 -31 -93
-55 -129 -55 -40 0 -110 38 -135 73 -22 31 -23 42 -26 257 -3 218 -4 226 -25
242 -25 20 -62 24 -51 6 5 -8 2 -9 -9 -5 -9 3 -19 1 -23 -5 -5 -7 -2 -8 7 -4
8 4 6 1 -3 -6 -11 -9 -18 -33 -20 -64 -3 -41 -6 -49 -23 -49 -18 0 -20 7 -20
59 1 53 4 61 33 87 46 42 107 41 148 -2z m763 0 l31 -31 0 -327 c0 -271 -3
-330 -15 -347 -8 -12 -11 -24 -7 -28 3 -4 -1 -4 -10 -1 -9 4 -19 2 -23 -4 -8
-15 -81 -14 -108 1 -38 20 -43 32 -46 101 -2 62 -1 68 16 65 14 -2 19 -15 23
-57 9 -84 67 -119 109 -65 20 26 21 38 21 336 l0 309 -25 24 c-30 31 -47 31
-79 1 l-26 -23 0 -217 c0 -209 -1 -216 -20 -216 -19 0 -20 7 -20 226 l0 226
31 29 c45 42 105 41 148 -2z m730 5 c37 -31 48 -78 28 -117 -16 -30 -57 -84
-150 -198 -31 -39 -54 -75 -51 -81 4 -6 3 -8 -3 -5 -6 4 -19 -6 -28 -21 -10
-15 -29 -40 -44 -56 -14 -16 -19 -26 -11 -22 8 4 5 -1 -8 -11 -13 -10 -20 -22
-16 -26 4 -4 60 -7 124 -7 105 0 120 -2 151 -23 41 -27 57 -77 39 -122 -6 -16
-11 -32 -10 -34 1 -2 -13 -10 -30 -18 -24 -10 -98 -13 -296 -13 l-265 0 -29
30 c-42 43 -41 94 3 152 145 189 170 218 188 218 25 0 24 -6 -6 -46 -14 -18
-25 -35 -25 -39 0 -3 -11 -17 -24 -30 -35 -35 -91 -116 -88 -127 1 -5 -1 -7
-6 -4 -10 6 -32 -36 -32 -60 0 -8 11 -26 25 -39 l24 -25 246 0 c232 0 246 1
265 20 11 11 21 26 21 33 3 28 -4 53 -18 70 -14 15 -36 17 -159 17 -78 0 -149
3 -158 6 -30 12 -43 -7 203 304 137 173 150 200 117 246 -13 18 -30 19 -252
22 -131 2 -249 0 -261 -3 -31 -7 -57 -49 -49 -79 13 -52 25 -56 191 -56 174 0
187 -6 136 -63 -16 -18 -40 -45 -54 -62 -20 -23 -28 -27 -37 -18 -9 8 -5 22
19 56 l31 45 -136 4 -136 3 -29 33 c-42 46 -41 103 2 143 l31 29 268 0 268 0
31 -26z m-2027 -163 c10 -11 10 -14 0 -18 -6 -3 -10 -9 -7 -13 3 -5 -7 -3 -22
5 -56 29 -142 10 -182 -41 -66 -83 -48 -260 32 -318 21 -16 44 -21 87 -21 71
0 105 21 138 86 20 38 22 55 18 119 -2 41 -7 90 -11 108 -7 30 -5 34 11 30 12
-2 25 -21 37 -53 20 -58 16 -159 -9 -206 -8 -16 -11 -29 -8 -29 16 0 -43 -53
-78 -71 -41 -21 -130 -26 -174 -9 -44 17 -88 60 -106 104 -20 49 -23 161 -6
219 13 44 57 93 103 114 38 17 159 13 177 -6z m2396 -443 c-3 -288 -5 -333
-18 -333 -13 0 -15 45 -18 333 -2 328 -2 332 18 332 20 0 20 -4 18 -332z
m-3145 294 c15 -16 16 -74 17 -554 0 -477 -1 -538 -16 -552 -18 -19 -45 -21
-62 -4 -9 9 -12 147 -12 560 0 510 1 548 18 557 25 15 37 13 55 -7z m1352
-452 c13 -6 15 -9 5 -9 -8 0 -22 4 -30 9 -18 12 -2 12 25 0z m912 -6 c-3 -3
-12 -4 -19 -1 -8 3 -5 6 6 6 11 1 17 -2 13 -5z m753 -587 l0 -443 -27 -42
c-41 -63 -69 -72 -228 -72 l-137 0 -92 -92 c-50 -51 -90 -95 -89 -98 1 -3 -6
-6 -16 -7 -10 -1 -44 25 -76 57 -32 33 -63 56 -68 53 -6 -3 -7 -2 -4 4 4 6
-11 27 -33 47 l-39 36 -305 0 c-267 0 -305 2 -300 15 5 13 50 15 318 15 l311
0 93 -92 92 -92 93 92 92 92 133 0 c153 0 188 10 220 63 22 34 22 42 22 471 0
429 0 436 20 436 20 0 20 -7 20 -443z m-2134 398 c24 -10 39 -25 50 -51 20
-47 11 -87 -28 -119 -26 -22 -38 -25 -113 -25 l-84 0 -3 -67 c-2 -56 -6 -68
-21 -71 -36 -7 -47 16 -47 99 0 105 5 109 124 109 104 0 127 11 106 49 -10 20
-18 21 -263 21 -139 0 -258 -4 -265 -9 -8 -4 -12 -19 -10 -32 3 -23 6 -24 107
-27 58 -1 111 -8 118 -14 10 -8 13 -74 13 -304 0 -279 1 -294 19 -304 22 -11
51 -4 51 14 1 6 1 73 0 148 -1 82 3 146 10 158 13 24 45 26 54 4 3 -9 6 -87 6
-175 l0 -159 -27 -30 c-56 -60 -144 -42 -173 35 -6 15 -10 138 -10 291 l0 264
-91 0 c-87 0 -92 1 -120 29 -50 51 -31 144 35 171 11 5 135 9 274 9 200 1 260
-2 288 -14z m295 -10 c16 -9 34 -28 40 -42 6 -16 10 -163 10 -361 l0 -335 -27
-29 c-79 -81 -184 -19 -184 110 0 53 16 76 47 70 14 -2 19 -16 23 -65 3 -34
10 -67 16 -74 14 -13 51 -4 56 14 1 7 2 155 0 329 -3 314 -3 317 -24 324 -43
13 -48 -13 -48 -241 0 -151 -3 -214 -12 -223 -16 -16 -23 -15 -42 4 -23 22
-24 430 -1 474 30 58 86 75 146 45z m307 1 c18 -9 43 -45 75 -105 52 -99 55
-131 11 -131 -20 0 -31 13 -66 85 -42 84 -68 109 -91 86 -18 -18 -17 -639 1
-657 15 -16 15 -16 36 -8 14 5 16 31 16 179 0 144 3 176 16 189 8 9 19 16 24
16 15 0 46 -52 129 -218 45 -90 88 -165 97 -169 8 -3 21 -1 27 6 7 6 53 91
102 188 89 176 114 207 136 171 5 -7 9 -88 9 -179 0 -181 6 -203 49 -179 21
10 21 18 21 329 0 270 -2 320 -15 331 -8 7 -21 10 -29 7 -8 -3 -71 -121 -140
-261 -155 -317 -144 -311 -237 -131 -52 102 -62 127 -53 142 24 38 47 21 94
-69 l45 -87 110 220 c61 121 118 227 127 235 9 9 35 18 57 21 36 5 44 2 76
-30 l35 -35 0 -342 0 -342 -34 -34 c-38 -38 -70 -43 -116 -19 -45 23 -60 62
-61 157 l0 83 -53 -105 c-60 -117 -78 -139 -127 -146 -59 -9 -89 21 -153 145
-31 61 -58 111 -59 111 -1 0 -3 -44 -5 -97 -2 -98 -2 -98 -37 -130 -39 -37
-70 -41 -116 -17 -55 28 -59 51 -58 393 0 198 4 321 11 342 12 34 60 69 96 69
13 0 35 -6 50 -14z m1277 -10 c58 -25 83 -105 49 -155 -29 -41 -72 -51 -217
-51 l-133 0 4 -32 4 -33 123 -2 c142 -2 168 -12 186 -72 9 -30 8 -44 -5 -74
-22 -54 -60 -67 -198 -67 l-113 0 0 -40 0 -40 138 0 c154 0 186 -9 212 -60 24
-46 19 -84 -16 -119 l-31 -31 -222 0 c-241 0 -251 2 -280 58 -29 56 -14 162
23 162 26 0 29 -6 32 -65 4 -90 -8 -85 225 -85 180 0 205 2 211 16 3 9 2 24
-4 33 -9 13 -36 16 -173 19 -90 1 -168 7 -174 11 -17 14 -20 185 -4 198 8 7
71 13 155 15 149 3 170 9 158 47 -6 20 -13 21 -150 21 -109 0 -147 3 -157 14
-9 9 -15 40 -16 87 -3 117 -16 109 172 109 172 0 202 7 194 46 -3 18 -15 19
-210 22 -201 2 -207 2 -218 -18 -7 -14 -11 -87 -9 -211 2 -200 0 -213 -42
-202 -10 3 -21 13 -24 22 -2 9 -4 105 -2 213 3 279 0 277 295 277 136 1 191
-3 217 -13z m-1015 -316 c0 -5 -4 -10 -10 -10 -5 0 -10 5 -10 10 0 6 5 10 10
10 6 0 10 -4 10 -10z m-1630 -286 c5 -219 7 -230 55 -274 l27 -25 339 -3 c261
-2 339 -6 336 -15 -5 -17 -660 -22 -700 -6 -15 7 -37 23 -47 37 -11 13 -20 21
-21 16 0 -5 -7 7 -14 26 -14 37 -22 440 -8 454 23 22 28 -13 33 -210z m1534
-433 c17 -18 13 -49 -8 -63 -13 -9 -787 -11 -810 -2 -19 7 -21 55 -4 72 9 9
113 12 408 12 374 0 398 -1 414 -19z"/>
</g>
</svg>
